<svg xmlns="http://www.w3.org/2000/svg" xmlns:xlink="http://www.w3.org/1999/xlink" xmlns:lucid="lucid" width="1174.86" height="1703"><g transform="translate(373.36094406324526 -2318.5)" lucid:page-tab-id="0_0"><path d="M-500 2000h1500v2000H-500z" fill="#fff"/><g filter="url(#a)"><path d="M-351.86 2780a20 20 0 0 1 20-20H760a20 20 0 0 1 20 20v1200a20 20 0 0 1-20 20H-331.86a20 20 0 0 1-20-20z" stroke="#747474" stroke-width="3" fill="#fff"/><path d="M-236.86 2838.32H778.5v3H-236.86z" fill="#e5e5e5"/><use xlink:href="#b" transform="matrix(1,0,0,1,-236.86094406324526,2804.68) translate(0 20.02)"/><use xlink:href="#c" transform="matrix(1,0,0,1,-236.86094406324526,2804.68) translate(77.44 20.02)"/></g><g filter="url(#d)"><path d="M-351.86 2360a20 20 0 0 1 20-20H760a20 20 0 0 1 20 20v360a20 20 0 0 1-20 20H-331.86a20 20 0 0 1-20-20z" stroke="#747474" stroke-width="3" fill="#fff"/><path d="M-236.86 2418.32H778.5v3H-236.86z" fill="#e5e5e5"/><use xlink:href="#e" transform="matrix(1,0,0,1,-236.86094406324526,2384.68) translate(0 20.02)"/><use xlink:href="#c" transform="matrix(1,0,0,1,-236.86094406324526,2384.68) translate(115.65999999999998 20.02)"/></g><path d="M-256.86 2817.5c0 20.7-16.8 37.5-37.5 37.5s-37.5-16.8-37.5-37.5 16.8-37.5 37.5-37.5 37.5 16.8 37.5 37.5z" stroke="#000" stroke-opacity="0" fill="#032d60"/><path d="M-276.85 2795.45h-35.02c-2.47 0-4.54 2.07-4.54 4.54v35c0 2.48 2.06 4.55 4.53 4.55h35.02c2.47 0 4.54-2.07 4.54-4.54v-35c0-2.48-2.08-4.55-4.55-4.55zm-33.47 4.54h31.92c.8 0 1.55.65 1.55 1.54v2.86h-35.02v-2.86c0-.9.66-1.55 1.55-1.55zm31.92 35h-31.93c-.8 0-1.54-.65-1.54-1.54v-24.65h35.02v24.66c0 .9-.66 1.55-1.55 1.55z" stroke="#000" stroke-opacity="0" fill="#fff"/><path d="M-296.77 2827.32l-4.85-4.87 4.85-4.86c.3-.3.3-.75 0-1.04l-2.05-2.07c-.3-.3-.74-.3-1.03 0l-5.36 5.38-1.1 1.1-.97.95c-.14.15-.22.38-.22.53 0 .2.1.36.23.5l7.5 7.53c.3.27.73.27 1.02 0l2.06-2.08c.23-.36.23-.8-.07-1.1zM-281.38 2821.85l-.95-.95-1.1-1.1-5.37-5.37c-.3-.3-.74-.3-1.03 0l-2.06 2.06c-.3.28-.3.72 0 1.02l4.86 4.86-4.85 4.85c-.3.3-.3.74 0 1.03l2.07 2.06c.3.3.73.3 1.03 0l7.5-7.5c.14-.15.2-.36.2-.53-.06-.07-.13-.3-.28-.45z" stroke="#000" stroke-opacity="0" fill="#fff"/><path d="M-256.86 2397.5c0 20.7-16.8 37.5-37.5 37.5s-37.5-16.8-37.5-37.5 16.8-37.5 37.5-37.5 37.5 16.8 37.5 37.5z" stroke="#000" stroke-opacity="0" stroke-width="2.34" fill="#321d71"/><path d="M-276.55 2389.7h-2.27v-7.76c0-.82-.7-1.62-1.62-1.62h-34.13c-.83 0-1.62.66-1.62 1.62v24.9c0 .82.67 1.6 1.63 1.6h15.54v2.28h-3.9c-.82 0-1.6.7-1.6 1.62 0 .8.65 1.62 1.6 1.62h10.85c.82 0 1.6-.7 1.6-1.62 0-.8-.65-1.62-1.6-1.62h-3.9v-2.27h7.77v2.27c0 2.17 1.74 4.03 4 4.03h7.65c2.14 0 4-1.76 4-4.03v-17c0-2.28-1.86-4.03-4-4.03zm.92 20.9c0 .54-.4.95-.92.95h-7.64c-.5 0-.9-.4-.9-.97v-16.85c0-.52.4-.93.9-.93H-276.4c.52 0 .96.4.96.92v16.87zm-35.88-5.35h-1.6v-21.86h31.18v6.3h-2.27c-2.13 0-4 1.74-4 4.02v10.84c-.53-1.2-1.23-2.27-2.15-3.2-.65-.7-1.48-1.34-2.4-1.76 1.3-1.34 2.27-3.06 2.27-5.1 0-3.85-3.1-6.95-6.98-6.95-3.9 0-6.94 3.1-6.94 6.96 0 2.04.78 3.9 2.27 5.1-2.27 1.2-4.02 3.38-4.8 5.8h-4.58zm10.15-10.84c0-2.16 1.75-3.9 3.9-3.9 2.17 0 3.88 1.74 3.88 3.9 0 2.14-1.7 3.86-3.9 3.86-2.13 0-3.88-1.72-3.88-3.86zm-2.4 10.85c1.23-2.27 3.5-3.9 6.3-3.9 1.87 0 3.6.66 4.97 2 .52.56.9 1.2 1.35 1.9h-12.62z" stroke="#000" stroke-opacity="0" stroke-width="2.34" fill="#fff"/><path d="M-280.3 2406.88c-.8 0-1.6.66-1.6 1.6 0 .8.66 1.6 1.6 1.6.8 0 1.6-.66 1.6-1.6 0-.26-.13-.53-.26-.8-.27-.54-.8-.8-1.34-.8zM-306.02 2385.88c-2.55 0-4.7 2.13-4.7 4.66v1.6c0 .8.68 1.6 1.62 1.6.8 0 1.6-.66 1.6-1.6v-1.6c0-.8.67-1.6 1.6-1.6.8 0 1.62-.66 1.62-1.6-.27-.8-.94-1.47-1.75-1.47z" stroke="#000" stroke-opacity="0" stroke-width="2.34" fill="#fff"/><g filter="url(#f)"><path d="M-260 2903.68a20 20 0 0 1 20-20h916.28a20 20 0 0 1 20 20V2980a20 20 0 0 1-20 20H-240a20 20 0 0 1-20-20z" stroke="#747474" fill="#fff"/><path d="M-240 2962h935.78v3H-240z" fill="#e5e5e5"/><use xlink:href="#g" transform="matrix(1,0,0,1,-240,2928.36) translate(0 20.02)"/></g><a xlink:href="http://XHarness.CLI" target="_blank" transform="matrix(1,0,0,1,-240,2928.36)"><path class="lucid-link lucid-hotspot lucid-overlay-hotspot" fill-opacity="0" d="M0 .18h126.8v25.64H0z"/></a><g filter="url(#h)"><path d="M-260 3052.3a20 20 0 0 1 20-20H20a20 20 0 0 1 20 20V3324a20 20 0 0 1-20 20h-260a20 20 0 0 1-20-20z" stroke="#747474" fill="#fff"/><path d="M-240 3110.63H39.5v3H-240z" fill="#e5e5e5"/><use xlink:href="#i" transform="matrix(1,0,0,1,-240,3076.9900000000002) translate(0 20.02)"/><use xlink:href="#j" transform="matrix(1,0,0,1,-240,3128.6300000000006) translate(0 18.318)"/><use xlink:href="#k" transform="matrix(1,0,0,1,-240,3166.7060000000006) translate(0 18.318)"/></g><g filter="url(#h)"><path d="M68.14 3052.3a20 20 0 0 1 20-20h260a20 20 0 0 1 20 20V3324a20 20 0 0 1-20 20h-260a20 20 0 0 1-20-20z" stroke="#747474" fill="#fff"/><path d="M88.14 3110.63h279.5v3H88.14z" fill="#e5e5e5"/><use xlink:href="#l" transform="matrix(1,0,0,1,88.13905593675474,3076.9900000000002) translate(0 20.02)"/><use xlink:href="#m" transform="matrix(1,0,0,1,88.13905593675474,3128.6300000000006) translate(0 18.318)"/><use xlink:href="#n" transform="matrix(1,0,0,1,88.13905593675474,3128.6300000000006) translate(82.404 18.318)"/><use xlink:href="#o" transform="matrix(1,0,0,1,88.13905593675474,3166.7060000000006) translate(0 18.318)"/><g><use xlink:href="#p" transform="matrix(1,0,0,1,88.13905593675474,3204.782) translate(0 18.318)"/></g></g><g filter="url(#h)"><path d="M396.28 3052.3a20 20 0 0 1 20-20h260a20 20 0 0 1 20 20V3324a20 20 0 0 1-20 20h-260a20 20 0 0 1-20-20z" stroke="#747474" fill="#fff"/><path d="M416.28 3110.63h279.5v3h-279.5z" fill="#e5e5e5"/><use xlink:href="#q" transform="matrix(1,0,0,1,416.2781118735095,3076.9900000000002) translate(0 20.02)"/><use xlink:href="#r" transform="matrix(1,0,0,1,416.2781118735095,3128.6300000000006) translate(0 18.318)"/><use xlink:href="#s" transform="matrix(1,0,0,1,416.2781118735095,3128.6300000000006) translate(38.78999999999999 18.318)"/><use xlink:href="#o" transform="matrix(1,0,0,1,416.2781118735095,3166.7060000000006) translate(0 18.318)"/><use xlink:href="#p" transform="matrix(1,0,0,1,416.2781118735095,3204.782) translate(0 18.318)"/><g><use xlink:href="#j" transform="matrix(1,0,0,1,416.2781118735095,3242.858) translate(0 18.318)"/></g></g><a xlink:href="http://XHarness.Android" target="_blank" transform="matrix(1,0,0,1,416.2781118735095,3076.9900000000002)"><path class="lucid-link lucid-hotspot lucid-overlay-hotspot" fill-opacity="0" d="M0 .18h172.74v25.64H0z"/></a><g filter="url(#t)"><path d="M-260 3396.32a20 20 0 0 1 20-20h916.28a20 20 0 0 1 20 20v560a20 20 0 0 1-20 20H-240a20 20 0 0 1-20-20z" stroke="#747474" stroke-width="2" fill="#fff"/><path d="M-145 3454.64h840.28v3H-145z" fill="#e5e5e5"/><use xlink:href="#u" transform="matrix(1,0,0,1,-145,3421) translate(0 20.02)"/></g><a xlink:href="http://XHarness.Comon" target="_blank" transform="matrix(1,0,0,1,-145,3421)"><path class="lucid-link lucid-hotspot lucid-overlay-hotspot" fill-opacity="0" d="M0 .18h108.58v25.64H0z"/></a><g filter="url(#v)"><path d="M244.7 3856.32a20 20 0 0 1 20-20h358.45a20 20 0 0 1 20 20v76.32a20 20 0 0 1-20 20H264.7a20 20 0 0 1-20-20z" stroke="#747474" fill="#fff"/><path d="M264.7 3914.64h377.95v3H264.7z" fill="#e5e5e5"/><use xlink:href="#w" transform="matrix(1,0,0,1,264.70233682213006,3881) translate(0 20.02)"/></g><g filter="url(#v)"><path d="M-206.87 3856.32a20 20 0 0 1 20-20h358.45a20 20 0 0 1 20 20v76.32a20 20 0 0 1-20 20h-358.45a20 20 0 0 1-20-20z" stroke="#747474" fill="#fff"/><path d="M-186.87 3914.64h377.95v3h-377.95z" fill="#e5e5e5"/><use xlink:href="#x" transform="matrix(1,0,0,1,-186.87343822924947,3880.9999999999995) translate(0 20.02)"/></g><g filter="url(#y)"><path d="M-206.87 3516.32a20 20 0 0 1 20-20h358.45a20 20 0 0 1 20 20v271.7a20 20 0 0 1-20 20h-358.45a20 20 0 0 1-20-20z" stroke="#747474" fill="#fff"/><path d="M-186.87 3574.64h377.95v3h-377.95z" fill="#e5e5e5"/><use xlink:href="#z" transform="matrix(1,0,0,1,-186.87343822924947,3541) translate(0 20.02)"/><use xlink:href="#A" transform="matrix(1,0,0,1,-186.87343822924947,3592.6400000000003) translate(0 18.318)"/><use xlink:href="#B" transform="matrix(1,0,0,1,-186.87343822924947,3630.7160000000003) translate(0 18.318)"/><use xlink:href="#C" transform="matrix(1,0,0,1,-186.87343822924947,3668.7920000000004) translate(0 18.318)"/><use xlink:href="#D" transform="matrix(1,0,0,1,-186.87343822924947,3706.868) translate(0 18.318)"/><use xlink:href="#E" transform="matrix(1,0,0,1,-186.87343822924947,3744.944) translate(0 18.318)"/></g><g filter="url(#y)"><path d="M244.7 3516.32a20 20 0 0 1 20-20h358.45a20 20 0 0 1 20 20v271.7a20 20 0 0 1-20 20H264.7a20 20 0 0 1-20-20z" stroke="#747474" fill="#fff"/><path d="M264.7 3574.64h377.95v3H264.7z" fill="#e5e5e5"/><use xlink:href="#F" transform="matrix(1,0,0,1,264.70233682213006,3541) translate(0 20.02)"/><use xlink:href="#G" transform="matrix(1,0,0,1,264.70233682213006,3541) translate(77.69999999999999 20.02)"/><use xlink:href="#H" transform="matrix(1,0,0,1,264.70233682213006,3592.6400000000003) translate(0 18.318)"/><use xlink:href="#I" transform="matrix(1,0,0,1,264.70233682213006,3630.7160000000003) translate(0 18.318)"/><use xlink:href="#J" transform="matrix(1,0,0,1,264.70233682213006,3668.7920000000004) translate(0 18.318)"/><g><use xlink:href="#K" transform="matrix(1,0,0,1,264.70233682213006,3706.868) translate(0 18.318)"/></g></g><path d="M-165 3433.82c0 20.7-16.8 37.5-37.5 37.5s-37.5-16.8-37.5-37.5 16.8-37.5 37.5-37.5 37.5 16.8 37.5 37.5z" stroke="#000" stroke-opacity="0" stroke-width="0" fill="#032d60"/><path d="M-178.95 3429.2c0-.9-.75-1.65-1.7-1.65h-2.58c-.14-.27-.23-.57-.38-.84l1.83-1.84c.33-.34.52-.76.52-1.2 0-.46-.2-.88-.52-1.18l-4.75-4.76c-.66-.68-1.7-.68-2.35 0l-1.84 1.85c-.3-.1-.57-.27-.85-.38v-2.62c0-.9-.75-1.66-1.7-1.66h-6.72c-.94 0-1.65.76-1.65 1.66v2.6l-.84.4-1.88-1.86c-.66-.68-1.7-.68-2.35 0l-4.74 4.76c-.66.64-.66 1.7 0 2.34l1.83 1.86c-.15.3-.25.56-.34.87h-2.63c-.94 0-1.65.75-1.65 1.66v5.04h-10.06c-.94 0-1.7.75-1.7 1.66v15.16c0 .9.76 1.66 1.7 1.66h24.36c.9 0 1.64-.76 1.64-1.66v-.84h5.03c.94 0 1.7-.75 1.7-1.66v-2.64l.8-.34 1.88 1.85c.66.68 1.7.68 2.35 0l4.75-4.76c.33-.3.52-.72.52-1.18 0-.46-.2-.88-.52-1.22l-1.83-1.85.32-.83h2.64c.47 0 .9-.2 1.17-.5.33-.33.52-.75.52-1.2v-6.73zm-10.3 13.16c-.52-.53-1.36-.64-1.97-.26-.8.4-1.6.75-2.5 1.02-.7.2-1.22.83-1.22 1.62v2.16h-3.34v-6.96c.52.15 1.08.2 1.65.2 4.18 0 7.57-3.37 7.57-7.57 0-4.16-3.4-7.56-7.57-7.56-4.14 0-7.53 3.4-7.53 7.57 0 .6.05 1.17.2 1.7h-6.92v-3.36h2.16c.76 0 1.4-.48 1.6-1.2.24-.87.57-1.7 1.04-2.46.37-.68.23-1.5-.3-2.04l-1.5-1.5 2.36-2.4 1.5 1.52c.52.53 1.37.64 2.03.26.76-.4 1.6-.75 2.5-1.02.7-.18 1.22-.83 1.22-1.62v-2.12h3.34v2.12c0 .76.52 1.43 1.27 1.62.85.27 1.7.6 2.45 1.03.66.36 1.5.25 2.02-.28l1.5-1.5 2.4 2.37-1.5 1.5c-.57.53-.66 1.36-.28 2.04.42.76.75 1.6.98 2.46.24.72.9 1.2 1.65 1.2h2.16v3.37h-2.15c-.75 0-1.4.53-1.65 1.25-.23.9-.52 1.66-1 2.46-.36.68-.27 1.5.3 2.04l1.5 1.5-2.35 2.4-1.55-1.52zm-11.57-9.8c0-2.3 1.88-4.18 4.2-4.18 2.34 0 4.22 1.9 4.22 4.2 0 2.3-1.88 4.2-4.23 4.2-2.3 0-4.2-1.9-4.2-4.2zm-21.82 5.04h20.98v11.8h-20.98v-11.8z" stroke="#000" stroke-opacity="0" stroke-width="0" fill="#fff"/><path d="M-207.53 3443.46c0-.93.75-1.68 1.68-1.68.92 0 1.67.75 1.67 1.68 0-.28-.08-.55-.2-.8-.1-.17-.2-.32-.35-.45-.67-.6-1.72-.57-2.34.1-.28.3-.46.7-.46 1.16zM-216.78 3443.44c0 .93-.75 1.67-1.67 1.67-.93 0-1.68-.73-1.68-1.66 0-.92.75-1.67 1.68-1.67.92 0 1.67.75 1.67 1.67zM-211.94 3441.4h-.17c-1.16 0-2.1.93-2.1 2.08 0 1.16.94 2.1 2.1 2.1.95 0 1.76-.66 2-1.55.05-.17.08-.36.08-.55 0-1.1-.85-2-1.93-2.07z" stroke="#000" stroke-opacity="0" stroke-width="0" fill="#fff"/><g filter="url(#f)"><path d="M-256.86 2620a20 20 0 0 1 20-20h916.28a20 20 0 0 1 20 20v76.32a20 20 0 0 1-20 20h-916.28a20 20 0 0 1-20-20z" stroke="#747474" fill="#fff"/><path d="M-236.86 2678.32h935.78v3h-935.78z" fill="#e5e5e5"/><use xlink:href="#L" transform="matrix(1,0,0,1,-236.86094406324526,2644.68) translate(0 20.02)"/></g><a xlink:href="http://XHarness.TestRunners.Common" target="_blank" transform="matrix(1,0,0,1,-236.86094406324526,2644.68)"><path class="lucid-link lucid-hotspot lucid-overlay-hotspot" fill-opacity="0" d="M0 .18h307.36v25.64H0z"/></a><g filter="url(#M)"><path d="M-256.86 2480a20 20 0 0 1 20-20h408.44a20 20 0 0 1 20 20v76.32a20 20 0 0 1-20 20h-408.44a20 20 0 0 1-20-20z" stroke="#747474" fill="#fff"/><path d="M-236.86 2538.32h427.94v3h-427.94z" fill="#e5e5e5"/><use xlink:href="#N" transform="matrix(1,0,0,1,-236.86094406324526,2504.68) translate(0 20.02)"/></g><a xlink:href="http://XHarness.TestRunners.Common" target="_blank" transform="matrix(1,0,0,1,-236.86094406324526,2504.68)"><path class="lucid-link lucid-hotspot lucid-overlay-hotspot" fill-opacity="0" d="M0 .18h231.06v25.64H0z"/></a><g filter="url(#O)"><path d="M244.7 2480a20 20 0 0 1 20-20h411.58a20 20 0 0 1 20 20v76.32a20 20 0 0 1-20 20H264.7a20 20 0 0 1-20-20z" stroke="#747474" fill="#fff"/><path d="M264.7 2538.32h431.08v3H264.7z" fill="#e5e5e5"/><use xlink:href="#P" transform="matrix(1,0,0,1,264.70233682213006,2504.68) translate(0 20.02)"/></g><a xlink:href="http://XHarness.TestRunners.Common" target="_blank" transform="matrix(1,0,0,1,264.70233682213006,2504.68)"><path class="lucid-link lucid-hotspot lucid-overlay-hotspot" fill-opacity="0" d="M0 .18h218.2v25.64H0z"/></a><defs><path d="M561-598H348V0H217v-598H4v-110h557v110" id="Q"/><path d="M314-534c172 0 271 101 271 272C585-92 485 14 314 14 144 14 44-93 44-262c0-171 98-272 270-272zm0 100c-102 0-140 71-140 172 0 102 39 177 141 177s142-75 142-177-40-172-143-172" id="R"/><path d="M203-708V0H78v-708h125" id="S"/><path d="M203 0H78v-520h125V0zm-62-611c-51 0-77-26-77-71 0-48 26-72 77-72s77 26 77 72c0 45-28 71-77 71" id="T"/><path d="M330-430c-79 0-127 62-127 141V0H78c-4-180 9-350-9-520h120c5 20 4 44 10 60 33-43 94-75 172-74 122 1 190 74 190 190V0H436v-317c-1-69-32-113-106-113" id="U"/><path d="M257 257C121 257 16 215 16 96 16 41 47-4 108-41c-25-16-43-33-43-70 0-44 33-71 72-82-59-31-88-82-88-153 0-157 169-219 323-174h189v99l-105-17c24 21 38 60 38 105-1 116-95 170-219 170-48 0-90 5-96 40 8 33 46 35 96 37 92 3 160 16 204 41s66 62 66 112c0 141-130 190-288 190zm-94-605c1 63 40 98 108 98 72 0 108-31 108-94-1-64-39-99-108-99-61 0-108 37-108 95zm97 512c85-1 161-15 161-84 0-25-17-43-51-54S276 9 192 8c-37 21-55 48-55 81 0 50 41 75 123 75" id="V"/><g id="b"><use transform="matrix(0.02,0,0,0.02,0,0)" xlink:href="#Q"/><use transform="matrix(0.02,0,0,0.02,11.3,0)" xlink:href="#R"/><use transform="matrix(0.02,0,0,0.02,23.900000000000002,0)" xlink:href="#R"/><use transform="matrix(0.02,0,0,0.02,36.5,0)" xlink:href="#S"/><use transform="matrix(0.02,0,0,0.02,42.14,0)" xlink:href="#T"/><use transform="matrix(0.02,0,0,0.02,47.78,0)" xlink:href="#U"/><use transform="matrix(0.02,0,0,0.02,60.44,0)" xlink:href="#V"/></g><path d="M206 14C110 14 37-46 38-146c2-168 152-185 331-181 25-144-173-124-258-70l-42-83c50-30 124-54 200-54 156 0 223 66 225 217 2 121-6 199 9 317H388c-5-27-8-47-9-59h-3c-39 49-83 73-170 73zm36-98c87-3 138-59 128-159-104-1-200-4-202 88-1 45 29 73 74 71" id="W"/><path d="M291 104c-34 93-75 150-187 153-33 0-63-5-89-15l24-93C152 186 175 85 200 4L-2-520h136c43 130 83 263 129 390l114-390h129" id="X"/><path d="M295-534c175 0 256 137 237 320H170c10 80 57 129 145 129 69-1 102-19 149-47l54 80c-56 41-119 66-211 66C138 14 46-91 44-260c-2-161 90-274 251-274zm117 226c-3-74-41-132-118-132-79 0-120 59-125 132h243" id="Y"/><path d="M380-422c-108-21-177 50-177 149V0H78c-4-180 9-350-9-520h120c6 28 5 55 10 72 34-65 100-96 186-82" id="Z"/><g id="c"><use transform="matrix(0.02,0,0,0.02,0,0)" xlink:href="#S"/><use transform="matrix(0.02,0,0,0.02,5.64,0)" xlink:href="#W"/><use transform="matrix(0.02,0,0,0.02,16.52,0)" xlink:href="#X"/><use transform="matrix(0.02,0,0,0.02,26.54,0)" xlink:href="#Y"/><use transform="matrix(0.02,0,0,0.02,38.12,0)" xlink:href="#Z"/></g><filter id="a" filterUnits="objectBoundingBox" x="0" y="0" width="1.01" height="1.01"><feOffset result="offOut" in="SourceAlpha" dy="3"/><feGaussianBlur result="blurOut" in="offOut" stdDeviation="2.5"/><feColorMatrix result="colorOut" in="blurOut" values="0 0 0 0 0.018823529411764708 0 0 0 0 0.018823529411764708 0 0 0 0 0.018823529411764708 0 0 0 0.2 0"/><feBlend in="SourceGraphic" in2="colorOut"/></filter><path d="M479-153H191L134 0H-3l272-708h135L675 0H533zM226-253h219L336-574" id="aa"/><path d="M367-534c156 0 224 117 224 273 0 157-81 275-237 275-60 0-110-17-151-50v280H78v-645c0-25-3-65-9-119h120c6 27 5 51 10 62 40-51 96-76 168-76zM324-85c97 0 138-75 138-176 0-99-35-171-124-173-77-2-135 64-135 141v166c37 24 66 41 121 42" id="ab"/><path d="M44-261c0-170 96-273 266-273 65 0 123 19 174 56l-47 87c-40-26-82-39-126-39-98-1-141 69-141 169 0 97 44 171 139 170 41 0 84-13 129-40l45 89C436-9 374 14 299 14 127 14 44-98 44-261" id="ac"/><path d="M266 14c-103 1-166-60-165-163v-271H15v-80l85-15v-123l126-44v167h129v95H226v259c-6 69 55 85 113 68l18 92c-25 10-56 15-91 15" id="ad"/><g id="e"><use transform="matrix(0.02,0,0,0.02,0,0)" xlink:href="#aa"/><use transform="matrix(0.02,0,0,0.02,13.46,0)" xlink:href="#ab"/><use transform="matrix(0.02,0,0,0.02,26.18,0)" xlink:href="#ab"/><use transform="matrix(0.02,0,0,0.02,38.9,0)" xlink:href="#S"/><use transform="matrix(0.02,0,0,0.02,44.54,0)" xlink:href="#T"/><use transform="matrix(0.02,0,0,0.02,50.18,0)" xlink:href="#ac"/><use transform="matrix(0.02,0,0,0.02,60.4,0)" xlink:href="#W"/><use transform="matrix(0.02,0,0,0.02,71.67999999999999,0)" xlink:href="#ad"/><use transform="matrix(0.02,0,0,0.02,79.38,0)" xlink:href="#T"/><use transform="matrix(0.02,0,0,0.02,85.02,0)" xlink:href="#R"/><use transform="matrix(0.02,0,0,0.02,97.61999999999999,0)" xlink:href="#U"/></g><filter id="d" filterUnits="objectBoundingBox" x="0" y="-.01" width="1.01" height="1.03"><feOffset result="offOut" in="SourceAlpha" dy="3"/><feGaussianBlur result="blurOut" in="offOut" stdDeviation="2.5"/><feColorMatrix result="colorOut" in="blurOut" values="0 0 0 0 0.018823529411764708 0 0 0 0 0.018823529411764708 0 0 0 0 0.018823529411764708 0 0 0 0.2 0"/><feBlend in="SourceGraphic" in2="colorOut"/></filter><path d="M646 0H493L320-282 149 0H-4l247-373L23-708h151l149 251 149-251h148L400-373" id="ae"/><path d="M670 0H538v-311H211V0H80v-708h131v292h327v-292h132V0" id="af"/><path d="M39-378c0-175 271-194 382-101l-50 79c-41-25-82-38-123-38-83 0-118 83-42 107 98 31 223 49 223 175C429 33 141 56 23-45l54-78c39 24 75 33 132 40 84 10 127-92 48-118-99-33-218-48-218-177" id="ag"/><path d="M217-65c0 48-24 75-75 75S66-15 66-65s25-75 76-75 75 27 75 75" id="ah"/><path d="M44-355c0-231 126-370 357-373 102-1 196 37 249 90l-74 84c-41-35-99-61-170-61-157-2-225 105-226 260 0 151 70 260 223 258 77-1 135-32 177-71l79 86C603-26 509 20 399 19 169 16 44-126 44-355" id="ai"/><path d="M211-109h306V0H80v-708h131v599" id="aj"/><path d="M259-99h83V0H48v-99h83v-513H48v-96h294v96h-83v513" id="ak"/><g id="g"><use transform="matrix(0.02,0,0,0.02,0,0)" xlink:href="#ae"/><use transform="matrix(0.02,0,0,0.02,12.86,0)" xlink:href="#af"/><use transform="matrix(0.02,0,0,0.02,27.84,0)" xlink:href="#W"/><use transform="matrix(0.02,0,0,0.02,39.22,0)" xlink:href="#Z"/><use transform="matrix(0.02,0,0,0.02,47.06,0)" xlink:href="#U"/><use transform="matrix(0.02,0,0,0.02,59.72,0)" xlink:href="#Y"/><use transform="matrix(0.02,0,0,0.02,71.3,0)" xlink:href="#ag"/><use transform="matrix(0.02,0,0,0.02,80.52,0)" xlink:href="#ag"/><use transform="matrix(0.02,0,0,0.02,89.74,0)" xlink:href="#ah"/><use transform="matrix(0.02,0,0,0.02,95.01999999999998,0)" xlink:href="#ai"/><use transform="matrix(0.02,0,0,0.02,108.57999999999998,0)" xlink:href="#aj"/><use transform="matrix(0.02,0,0,0.02,118.99999999999999,0)" xlink:href="#ak"/><path fill="#8080ff" d="M-1 1h128.8v1H-1z"/></g><filter id="f" filterUnits="objectBoundingBox" x="-.01" y="-.02" width="1.01" height="1.09"><feOffset result="offOut" in="SourceAlpha" dy="3"/><feGaussianBlur result="blurOut" in="offOut" stdDeviation="2.5"/><feColorMatrix result="colorOut" in="blurOut" values="0 0 0 0 0.018823529411764708 0 0 0 0 0.018823529411764708 0 0 0 0 0.018823529411764708 0 0 0 0.2 0"/><feBlend in="SourceGraphic" in2="colorOut"/></filter><g id="i"><use transform="matrix(0.02,0,0,0.02,0,0)" xlink:href="#ae"/><use transform="matrix(0.02,0,0,0.02,12.86,0)" xlink:href="#af"/><use transform="matrix(0.02,0,0,0.02,27.84,0)" xlink:href="#W"/><use transform="matrix(0.02,0,0,0.02,39.22,0)" xlink:href="#Z"/><use transform="matrix(0.02,0,0,0.02,47.06,0)" xlink:href="#U"/><use transform="matrix(0.02,0,0,0.02,59.72,0)" xlink:href="#Y"/><use transform="matrix(0.02,0,0,0.02,71.3,0)" xlink:href="#ag"/><use transform="matrix(0.02,0,0,0.02,80.52,0)" xlink:href="#ag"/><use transform="matrix(0.02,0,0,0.02,89.74,0)" xlink:href="#ah"/><use transform="matrix(0.02,0,0,0.02,95.41999999999999,0)" xlink:href="#aa"/><use transform="matrix(0.02,0,0,0.02,108.88,0)" xlink:href="#ab"/><use transform="matrix(0.02,0,0,0.02,121.60000000000001,0)" xlink:href="#ab"/><use transform="matrix(0.02,0,0,0.02,134.32,0)" xlink:href="#S"/><use transform="matrix(0.02,0,0,0.02,139.95999999999998,0)" xlink:href="#Y"/></g><path d="M404 17C175 17 49-126 49-354s126-371 355-371 355 143 355 371S633 17 404 17zm1-77c173 0 264-121 264-294s-91-294-264-294c-174 0-265 121-265 294S231-60 405-60" id="al"/><path d="M349-523c153 3 224 114 224 268 0 156-81 269-235 269-65 0-120-21-167-63v293H86v-639c0-37-2-75-7-114h81c5 21 3 52 9 78 33-55 92-94 180-92zM320-54c111 1 165-88 165-201 0-111-49-200-153-200-99 0-161 67-161 165v169c42 40 76 65 149 67" id="am"/><path d="M288-523c162-3 241 129 226 299H136c6 100 61 171 167 170 70-1 110-20 156-50l38 55c-54 38-112 62-199 63C141 16 48-99 50-257c3-159 80-263 238-266zm145 233c-2-96-49-168-146-168-96 0-149 75-152 168h298" id="an"/><path d="M353-447c-118-18-182 64-182 174V0H86c-3-170 7-349-7-509h81c5 22 3 54 9 81 32-70 98-104 189-92" id="ao"/><path d="M206 14C109 15 40-41 42-139c1-169 156-177 340-175 7-97-33-143-126-142-54 0-105 14-153 43l-30-57c57-35 120-53 188-53 141 0 204 63 206 202 1 110-5 220 7 321h-78c-5-29-7-52-7-69h-3c-38 54-89 83-180 83zm22-67c89-2 148-53 154-135v-66s-251-9-252 110c0 59 38 91 98 91" id="ap"/><path d="M328 1C218 40 105-8 105-130v-314H15v-55l89-10v-125l86-30v155h135v65H190v307c-6 76 60 95 125 75" id="aq"/><path d="M172 0H87v-509h85V0zm-42-631c-37 0-55-19-56-52 0-36 19-54 56-54s55 18 55 54c-1 33-19 52-55 52" id="ar"/><path d="M305-523c165 3 256 102 256 267 0 164-91 270-256 270C141 14 52-92 50-256c-2-160 95-269 255-267zm0 68c-116 0-167 83-167 199S190-54 305-54c116 0 169-86 169-202 0-117-53-199-169-199" id="as"/><path d="M323-452c-91 0-152 70-152 160V0H86c-3-170 7-349-7-509h81c5 17 3 46 9 72 33-51 94-86 177-86 122 0 189 80 189 194V0h-85v-312c-1-82-40-140-127-140" id="at"/><path d="M41-381c-4-162 252-177 353-88l-38 53c-39-27-82-41-128-41-98 0-143 107-54 139 97 35 229 46 229 174C403 35 133 53 25-45l39-53c42 28 78 41 142 45 80 4 134-58 99-129-26-31-59-35-113-51-89-25-148-50-151-148" id="au"/><g id="j"><use transform="matrix(0.018,0,0,0.018,0,0)" xlink:href="#al"/><use transform="matrix(0.018,0,0,0.018,14.562,0)" xlink:href="#am"/><use transform="matrix(0.018,0,0,0.018,25.758,0)" xlink:href="#an"/><use transform="matrix(0.018,0,0,0.018,35.928,0)" xlink:href="#ao"/><use transform="matrix(0.018,0,0,0.018,42.12,0)" xlink:href="#ap"/><use transform="matrix(0.018,0,0,0.018,51.84,0)" xlink:href="#aq"/><use transform="matrix(0.018,0,0,0.018,58.266000000000005,0)" xlink:href="#ar"/><use transform="matrix(0.018,0,0,0.018,62.910000000000004,0)" xlink:href="#as"/><use transform="matrix(0.018,0,0,0.018,73.908,0)" xlink:href="#at"/><use transform="matrix(0.018,0,0,0.018,84.96000000000001,0)" xlink:href="#au"/></g><path d="M50-255c-6-191 150-312 344-253 29 10 54 23 77 40l-34 59c-39-29-84-43-135-43-113-1-166 83-166 197 0 112 54 199 165 197 46 0 92-14 137-43l31 60C418-4 360 14 295 14 131 13 55-96 50-255" id="av"/><path d="M324-452c-91 0-152 70-152 160V0H87v-708h85c1 89-3 184 2 270 34-50 90-85 174-85 123 0 188 80 188 194V0h-85v-312c-1-82-40-140-127-140" id="aw"/><g id="k"><use transform="matrix(0.018,0,0,0.018,0,0)" xlink:href="#al"/><use transform="matrix(0.018,0,0,0.018,14.562,0)" xlink:href="#ao"/><use transform="matrix(0.018,0,0,0.018,20.772,0)" xlink:href="#av"/><use transform="matrix(0.018,0,0,0.018,29.825999999999997,0)" xlink:href="#aw"/><use transform="matrix(0.018,0,0,0.018,40.895999999999994,0)" xlink:href="#an"/><use transform="matrix(0.018,0,0,0.018,51.065999999999995,0)" xlink:href="#au"/><use transform="matrix(0.018,0,0,0.018,59.021999999999984,0)" xlink:href="#aq"/><use transform="matrix(0.018,0,0,0.018,65.448,0)" xlink:href="#ao"/><use transform="matrix(0.018,0,0,0.018,71.63999999999999,0)" xlink:href="#ap"/><use transform="matrix(0.018,0,0,0.018,81.35999999999997,0)" xlink:href="#aq"/><use transform="matrix(0.018,0,0,0.018,87.78599999999999,0)" xlink:href="#ar"/><use transform="matrix(0.018,0,0,0.018,92.42999999999999,0)" xlink:href="#as"/><use transform="matrix(0.018,0,0,0.018,103.428,0)" xlink:href="#at"/></g><filter id="h" filterUnits="objectBoundingBox" x="-.02" y="-.01" width="1.03" height="1.03"><feOffset result="offOut" in="SourceAlpha" dy="3"/><feGaussianBlur result="blurOut" in="offOut" stdDeviation="2.5"/><feColorMatrix result="colorOut" in="blurOut" values="0 0 0 0 0.018823529411764708 0 0 0 0 0.018823529411764708 0 0 0 0 0.018823529411764708 0 0 0 0.2 0"/><feBlend in="SourceGraphic" in2="colorOut"/></filter><path d="M406 19C174 19 44-123 44-354s130-373 362-373 363 142 363 373S638 19 406 19zm0-113c155 0 229-105 229-260s-74-260-229-260c-154 0-228 106-228 260S252-94 406-94" id="ax"/><path d="M540-200C550 52 170 69 26-64l63-83c71 67 317 99 317-48 0-96-79-102-162-127-111-33-193-77-195-204-4-228 334-244 479-129l-59 85c-50-30-95-49-167-50-67 0-123 23-123 86 0 82 64 84 147 110 123 38 208 79 214 224" id="ay"/><path d="M330-430c-78 0-127 63-127 141V0H78v-708h125c1 81-3 167 2 245 38-47 94-71 167-71 121 0 189 79 189 190V0H436v-317c-1-69-32-113-106-113" id="az"/><path d="M44-257c2-159 83-277 241-277 59 0 108 17 147 52v-226h125c4 237-9 482 8 708H449c-6-26-5-51-10-65-38 51-88 79-175 79C113 16 42-104 44-257zM298-85c79 1 134-62 134-142v-152c-34-36-77-54-128-54-90 1-130 79-130 176S212-88 298-85" id="aA"/><g id="l"><use transform="matrix(0.02,0,0,0.02,0,0)" xlink:href="#ae"/><use transform="matrix(0.02,0,0,0.02,12.86,0)" xlink:href="#af"/><use transform="matrix(0.02,0,0,0.02,27.84,0)" xlink:href="#W"/><use transform="matrix(0.02,0,0,0.02,39.22,0)" xlink:href="#Z"/><use transform="matrix(0.02,0,0,0.02,47.06,0)" xlink:href="#U"/><use transform="matrix(0.02,0,0,0.02,59.72,0)" xlink:href="#Y"/><use transform="matrix(0.02,0,0,0.02,71.3,0)" xlink:href="#ag"/><use transform="matrix(0.02,0,0,0.02,80.52,0)" xlink:href="#ag"/><use transform="matrix(0.02,0,0,0.02,89.74,0)" xlink:href="#ah"/><use transform="matrix(0.02,0,0,0.02,95.41999999999999,0)" xlink:href="#T"/><use transform="matrix(0.02,0,0,0.02,101.05999999999999,0)" xlink:href="#ax"/><use transform="matrix(0.02,0,0,0.02,117.29999999999998,0)" xlink:href="#ay"/><use transform="matrix(0.02,0,0,0.02,128.57999999999998,0)" xlink:href="#ah"/><use transform="matrix(0.02,0,0,0.02,134.04,0)" xlink:href="#ay"/><use transform="matrix(0.02,0,0,0.02,145.54,0)" xlink:href="#az"/><use transform="matrix(0.02,0,0,0.02,158,0)" xlink:href="#W"/><use transform="matrix(0.02,0,0,0.02,169.38,0)" xlink:href="#Z"/><use transform="matrix(0.02,0,0,0.02,176.94,0)" xlink:href="#Y"/><use transform="matrix(0.02,0,0,0.02,188.52,0)" xlink:href="#aA"/></g><path d="M834 0h-87c-1-201 4-407 0-605L493 0h-67c-85-201-167-406-255-605l2 605H90v-708h131c81 196 158 395 241 589l240-589h132V0" id="aB"/><path d="M179-75h324V0H90v-708h89v633" id="aC"/><path d="M270 14C144 14 79-74 79-197v-312h86v300c0 89 37 155 125 155 95 0 154-86 154-183v-272h85c3 170-7 349 7 509h-81c-5-20-3-53-9-81-37 63-95 95-176 95" id="aD"/><g id="m"><use transform="matrix(0.018,0,0,0.018,0,0)" xlink:href="#aB"/><use transform="matrix(0.018,0,0,0.018,16.613999999999997,0)" xlink:href="#aC"/><use transform="matrix(0.018,0,0,0.018,25.721999999999994,0)" xlink:href="#ap"/><use transform="matrix(0.018,0,0,0.018,35.513999999999996,0)" xlink:href="#aD"/><use transform="matrix(0.018,0,0,0.018,46.583999999999996,0)" xlink:href="#at"/><use transform="matrix(0.018,0,0,0.018,57.635999999999996,0)" xlink:href="#av"/><use transform="matrix(0.018,0,0,0.018,66.69,0)" xlink:href="#aw"/></g><path d="M315-453c-88 0-144 74-144 161V0H86c-3-170 7-349-7-509h81c5 17 3 46 9 72 30-48 90-86 168-86 89 0 140 43 168 103 32-60 90-104 179-103 122 1 187 78 187 197V0h-85v-314c-1-78-37-142-120-139-97 3-146 77-146 174V0h-85v-316c-1-77-39-137-120-137" id="aE"/><path d="M247 257c-129 0-227-40-227-153C20 28 64-4 125-36c-33-15-49-37-49-67 0-43 35-68 74-79-60-24-100-74-100-157 0-151 154-213 302-170h177v68l-113-12c32 23 55 66 54 122 0 115-87 172-209 172-52 0-107 9-107 49 0 27 32 41 97 42 94 1 163 14 205 38s63 59 63 107c0 132-124 180-272 180zM129-341c1 79 47 121 131 121 87 0 131-39 131-118-1-77-49-121-131-121-76 0-132 44-131 118zm121 534c101 0 185-23 185-109 0-54-41-66-99-78-36-7-85-10-148-10-49 23-85 46-85 104 0 62 49 93 147 93" id="aF"/><g id="n"><use transform="matrix(0.018,0,0,0.018,0,0)" xlink:href="#aE"/><use transform="matrix(0.018,0,0,0.018,16.919999999999998,0)" xlink:href="#ap"/><use transform="matrix(0.018,0,0,0.018,26.747999999999998,0)" xlink:href="#at"/><use transform="matrix(0.018,0,0,0.018,37.62,0)" xlink:href="#ap"/><use transform="matrix(0.018,0,0,0.018,47.44799999999999,0)" xlink:href="#aF"/><use transform="matrix(0.018,0,0,0.018,57.20399999999999,0)" xlink:href="#an"/><use transform="matrix(0.018,0,0,0.018,67.374,0)" xlink:href="#ao"/></g><path d="M316-708c234 0 367 116 367 353C683-126 546 1 318 0H90v-708h226zm-7 634c186-1 284-92 283-281 0-187-94-280-282-280H178v561h131" id="aG"/><path d="M293 0h-95L4-509h91L246-85h3l146-424h88" id="aH"/><g id="o"><use transform="matrix(0.018,0,0,0.018,0,0)" xlink:href="#aG"/><use transform="matrix(0.018,0,0,0.018,13.175999999999998,0)" xlink:href="#an"/><use transform="matrix(0.018,0,0,0.018,23.22,0)" xlink:href="#aH"/><use transform="matrix(0.018,0,0,0.018,32.004,0)" xlink:href="#ar"/><use transform="matrix(0.018,0,0,0.018,36.647999999999996,0)" xlink:href="#av"/><use transform="matrix(0.018,0,0,0.018,45.414,0)" xlink:href="#an"/><use transform="matrix(0.018,0,0,0.018,55.584,0)" xlink:href="#au"/></g><path d="M519-192C526 49 168 67 30-66l45-56c53 42 105 63 193 64 90 1 164-42 161-131-3-108-85-124-177-151-113-33-191-67-197-195-9-210 320-235 451-122l-40 58c-51-32-98-52-175-53-81-1-152 34-149 111 4 95 69 103 160 131 125 38 213 72 217 218" id="aI"/><path d="M172-708V0H87v-708h85" id="aJ"/><g id="p"><use transform="matrix(0.018,0,0,0.018,0,0)" xlink:href="#aI"/><use transform="matrix(0.018,0,0,0.018,10.062,0)" xlink:href="#ar"/><use transform="matrix(0.018,0,0,0.018,14.706,0)" xlink:href="#aE"/><use transform="matrix(0.018,0,0,0.018,31.769999999999996,0)" xlink:href="#aD"/><use transform="matrix(0.018,0,0,0.018,42.839999999999996,0)" xlink:href="#aJ"/><use transform="matrix(0.018,0,0,0.018,47.483999999999995,0)" xlink:href="#ap"/><use transform="matrix(0.018,0,0,0.018,57.20399999999999,0)" xlink:href="#aq"/><use transform="matrix(0.018,0,0,0.018,63.395999999999994,0)" xlink:href="#as"/><use transform="matrix(0.018,0,0,0.018,74.39399999999999,0)" xlink:href="#ao"/><use transform="matrix(0.018,0,0,0.018,80.946,0)" xlink:href="#au"/></g><g id="q"><use transform="matrix(0.02,0,0,0.02,0,0)" xlink:href="#ae"/><use transform="matrix(0.02,0,0,0.02,12.86,0)" xlink:href="#af"/><use transform="matrix(0.02,0,0,0.02,27.84,0)" xlink:href="#W"/><use transform="matrix(0.02,0,0,0.02,39.22,0)" xlink:href="#Z"/><use transform="matrix(0.02,0,0,0.02,47.06,0)" xlink:href="#U"/><use transform="matrix(0.02,0,0,0.02,59.72,0)" xlink:href="#Y"/><use transform="matrix(0.02,0,0,0.02,71.3,0)" xlink:href="#ag"/><use transform="matrix(0.02,0,0,0.02,80.52,0)" xlink:href="#ag"/><use transform="matrix(0.02,0,0,0.02,89.74,0)" xlink:href="#ah"/><use transform="matrix(0.02,0,0,0.02,95.41999999999999,0)" xlink:href="#aa"/><use transform="matrix(0.02,0,0,0.02,108.88,0)" xlink:href="#U"/><use transform="matrix(0.02,0,0,0.02,121.53999999999998,0)" xlink:href="#aA"/><use transform="matrix(0.02,0,0,0.02,134.23999999999998,0)" xlink:href="#Z"/><use transform="matrix(0.02,0,0,0.02,141.79999999999998,0)" xlink:href="#R"/><use transform="matrix(0.02,0,0,0.02,154.39999999999998,0)" xlink:href="#T"/><use transform="matrix(0.02,0,0,0.02,160.03999999999996,0)" xlink:href="#aA"/><path fill="#8080ff" d="M-1 1h174.74v1H-1z"/></g><path d="M495-172H163L97 0H4l280-708h93L655 0h-96zm-307-69h282L329-624" id="aK"/><path d="M50-253c3-155 81-270 235-270 68 0 123 22 166 66v-251h85v595c0 37 2 74 7 113h-79c-6-29-4-58-9-76-38 60-99 90-182 90C125 14 47-103 50-253zM292-54c94 1 159-71 159-165v-160c-36-45-79-74-154-75-104-1-159 92-159 201 0 111 50 197 154 199" id="aL"/><path d="M348-523c153 3 225 113 225 268 0 159-84 269-242 269-64 0-119-22-166-67l-8 53H87v-708h85v272h3c32-52 90-88 173-87zM321-54c109 1 165-89 165-201 0-111-49-200-153-200-99 0-161 67-161 165v169c40 39 78 65 149 67" id="aM"/><g id="r"><use transform="matrix(0.018,0,0,0.018,0,0)" xlink:href="#aK"/><use transform="matrix(0.018,0,0,0.018,11.771999999999998,0)" xlink:href="#aL"/><use transform="matrix(0.018,0,0,0.018,22.949999999999996,0)" xlink:href="#aM"/></g><g id="s"><use transform="matrix(0.018,0,0,0.018,0,0)" xlink:href="#ao"/><use transform="matrix(0.018,0,0,0.018,6.552,0)" xlink:href="#aD"/><use transform="matrix(0.018,0,0,0.018,17.622,0)" xlink:href="#at"/><use transform="matrix(0.018,0,0,0.018,28.674,0)" xlink:href="#at"/><use transform="matrix(0.018,0,0,0.018,39.726,0)" xlink:href="#an"/><use transform="matrix(0.018,0,0,0.018,49.89600000000001,0)" xlink:href="#ao"/></g><path d="M323-431c-76 0-120 65-120 142V0H78c-4-180 9-350-9-520h120c5 21 4 44 10 59 33-42 89-73 163-73 79 0 131 31 166 86 39-57 97-86 173-86 125 1 193 81 193 202V0H769v-314c-1-70-28-117-100-117-78 0-121 72-120 149V0H423v-324c-1-62-33-107-100-107" id="aN"/><g id="u"><use transform="matrix(0.02,0,0,0.02,0,0)" xlink:href="#ae"/><use transform="matrix(0.02,0,0,0.02,12.86,0)" xlink:href="#af"/><use transform="matrix(0.02,0,0,0.02,27.84,0)" xlink:href="#W"/><use transform="matrix(0.02,0,0,0.02,39.22,0)" xlink:href="#Z"/><use transform="matrix(0.02,0,0,0.02,47.06,0)" xlink:href="#U"/><use transform="matrix(0.02,0,0,0.02,59.72,0)" xlink:href="#Y"/><use transform="matrix(0.02,0,0,0.02,71.3,0)" xlink:href="#ag"/><use transform="matrix(0.02,0,0,0.02,80.52,0)" xlink:href="#ag"/><use transform="matrix(0.02,0,0,0.02,89.74,0)" xlink:href="#ah"/><use transform="matrix(0.02,0,0,0.02,95.01999999999998,0)" xlink:href="#ai"/><path fill="#8080ff" d="M-1 1h110.58v1H-1z"/><use transform="matrix(0.02,0,0,0.02,108.57999999999998,0)" xlink:href="#R"/><use transform="matrix(0.02,0,0,0.02,121.17999999999998,0)" xlink:href="#aN"/><use transform="matrix(0.02,0,0,0.02,140.49999999999997,0)" xlink:href="#aN"/><use transform="matrix(0.02,0,0,0.02,159.81999999999996,0)" xlink:href="#R"/><use transform="matrix(0.02,0,0,0.02,172.41999999999996,0)" xlink:href="#U"/></g><filter id="t" filterUnits="objectBoundingBox" x="-.01" y="0" width="1.01" height="1.02"><feOffset result="offOut" in="SourceAlpha" dy="3"/><feGaussianBlur result="blurOut" in="offOut" stdDeviation="2.5"/><feColorMatrix result="colorOut" in="blurOut" values="0 0 0 0 0.018823529411764708 0 0 0 0 0.018823529411764708 0 0 0 0 0.018823529411764708 0 0 0 0.2 0"/><feBlend in="SourceGraphic" in2="colorOut"/></filter><path d="M369 19C188 19 71-79 72-256v-452h131v442c1 116 47 172 166 172s166-56 166-172v-442h131v452C667-79 550 19 369 19" id="aO"/><g id="w"><use transform="matrix(0.02,0,0,0.02,0,0)" xlink:href="#aO"/><use transform="matrix(0.02,0,0,0.02,14.76,0)" xlink:href="#ad"/><use transform="matrix(0.02,0,0,0.02,22.46,0)" xlink:href="#T"/><use transform="matrix(0.02,0,0,0.02,28.1,0)" xlink:href="#S"/><use transform="matrix(0.02,0,0,0.02,33.74,0)" xlink:href="#T"/><use transform="matrix(0.02,0,0,0.02,39.38,0)" xlink:href="#ad"/><use transform="matrix(0.02,0,0,0.02,47.08,0)" xlink:href="#T"/><use transform="matrix(0.02,0,0,0.02,52.72000000000001,0)" xlink:href="#Y"/><use transform="matrix(0.02,0,0,0.02,64.30000000000001,0)" xlink:href="#ag"/></g><filter id="v" filterUnits="objectBoundingBox" x="-.01" y="-.02" width="1.03" height="1.09"><feOffset result="offOut" in="SourceAlpha" dy="3"/><feGaussianBlur result="blurOut" in="offOut" stdDeviation="2.5"/><feColorMatrix result="colorOut" in="blurOut" values="0 0 0 0 0.018823529411764708 0 0 0 0 0.018823529411764708 0 0 0 0 0.018823529411764708 0 0 0 0.2 0"/><feBlend in="SourceGraphic" in2="colorOut"/></filter><path d="M321-708c238 0 378 113 376 353C695-123 558 0 326 0H80v-708h241zm241 353c0-168-80-245-246-246H210v493h103c166-1 249-79 249-247" id="aP"/><g id="x"><use transform="matrix(0.02,0,0,0.02,0,0)" xlink:href="#aP"/><use transform="matrix(0.02,0,0,0.02,14.8,0)" xlink:href="#T"/><use transform="matrix(0.02,0,0,0.02,20.44,0)" xlink:href="#W"/><use transform="matrix(0.02,0,0,0.02,31.82,0)" xlink:href="#V"/><use transform="matrix(0.02,0,0,0.02,43.44,0)" xlink:href="#U"/><use transform="matrix(0.02,0,0,0.02,56.099999999999994,0)" xlink:href="#R"/><use transform="matrix(0.02,0,0,0.02,68.69999999999999,0)" xlink:href="#ag"/><use transform="matrix(0.02,0,0,0.02,77.91999999999999,0)" xlink:href="#ad"/><use transform="matrix(0.02,0,0,0.02,85.61999999999999,0)" xlink:href="#T"/><use transform="matrix(0.02,0,0,0.02,91.25999999999998,0)" xlink:href="#ac"/><use transform="matrix(0.02,0,0,0.02,101.47999999999999,0)" xlink:href="#ag"/></g><g id="z"><use transform="matrix(0.02,0,0,0.02,0,0)" xlink:href="#aj"/><use transform="matrix(0.02,0,0,0.02,10.2,0)" xlink:href="#R"/><use transform="matrix(0.02,0,0,0.02,22.799999999999997,0)" xlink:href="#V"/><use transform="matrix(0.02,0,0,0.02,34.7,0)" xlink:href="#V"/><use transform="matrix(0.02,0,0,0.02,46.32000000000001,0)" xlink:href="#T"/><use transform="matrix(0.02,0,0,0.02,51.96000000000001,0)" xlink:href="#U"/><use transform="matrix(0.02,0,0,0.02,64.62,0)" xlink:href="#V"/></g><path d="M49-355c0-228 122-371 351-371 102 0 185 35 240 87l-52 57c-44-40-106-67-185-68-174-3-262 122-262 295-1 171 88 297 260 294 84 0 152-36 197-80l54 59C596-25 507 18 398 17 170 15 49-128 49-355" id="aQ"/><g id="A"><use transform="matrix(0.018,0,0,0.018,0,0)" xlink:href="#aQ"/><use transform="matrix(0.018,0,0,0.018,11.664,0)" xlink:href="#as"/><use transform="matrix(0.018,0,0,0.018,22.662,0)" xlink:href="#at"/><use transform="matrix(0.018,0,0,0.018,33.714,0)" xlink:href="#au"/><use transform="matrix(0.018,0,0,0.018,41.67,0)" xlink:href="#as"/><use transform="matrix(0.018,0,0,0.018,52.668,0)" xlink:href="#aJ"/><use transform="matrix(0.018,0,0,0.018,57.312,0)" xlink:href="#an"/></g><path d="M520-635H179v242h302v72H179V0H90v-708h430v73" id="aR"/><g id="B"><use transform="matrix(0.018,0,0,0.018,0,0)" xlink:href="#aR"/><use transform="matrix(0.018,0,0,0.018,9.324,0)" xlink:href="#ar"/><use transform="matrix(0.018,0,0,0.018,13.968000000000002,0)" xlink:href="#aJ"/><use transform="matrix(0.018,0,0,0.018,18.612,0)" xlink:href="#an"/></g><path d="M245 124c-31 80-63 130-160 133-26 0-50-4-71-12l17-63C159 220 168 89 202 3L4-509h92c50 139 97 282 150 419l136-419h87" id="aS"/><g id="C"><use transform="matrix(0.018,0,0,0.018,0,0)" xlink:href="#aB"/><use transform="matrix(0.018,0,0,0.018,16.613999999999997,0)" xlink:href="#an"/><use transform="matrix(0.018,0,0,0.018,26.784,0)" xlink:href="#aE"/><use transform="matrix(0.018,0,0,0.018,43.88399999999999,0)" xlink:href="#as"/><use transform="matrix(0.018,0,0,0.018,54.882,0)" xlink:href="#ao"/><use transform="matrix(0.018,0,0,0.018,61.794,0)" xlink:href="#aS"/></g><path d="M221-244l-49 46V0H87v-708h85v414l231-215h102L280-299 527 0H421" id="aT"/><g id="D"><use transform="matrix(0.018,0,0,0.018,0,0)" xlink:href="#aQ"/><use transform="matrix(0.018,0,0,0.018,12.132,0)" xlink:href="#ap"/><use transform="matrix(0.018,0,0,0.018,21.96,0)" xlink:href="#aJ"/><use transform="matrix(0.018,0,0,0.018,26.604,0)" xlink:href="#aJ"/><use transform="matrix(0.018,0,0,0.018,31.247999999999998,0)" xlink:href="#aM"/><use transform="matrix(0.018,0,0,0.018,42.443999999999996,0)" xlink:href="#ap"/><use transform="matrix(0.018,0,0,0.018,52.27199999999999,0)" xlink:href="#av"/><use transform="matrix(0.018,0,0,0.018,61.32599999999999,0)" xlink:href="#aT"/></g><g id="E"><use transform="matrix(0.018,0,0,0.018,0,0)" xlink:href="#aK"/><use transform="matrix(0.018,0,0,0.018,11.879999999999999,0)" xlink:href="#aF"/><use transform="matrix(0.018,0,0,0.018,22.122,0)" xlink:href="#aF"/><use transform="matrix(0.018,0,0,0.018,32.058,0)" xlink:href="#ao"/><use transform="matrix(0.018,0,0,0.018,38.267999999999994,0)" xlink:href="#an"/><use transform="matrix(0.018,0,0,0.018,48.438,0)" xlink:href="#aF"/><use transform="matrix(0.018,0,0,0.018,58.374,0)" xlink:href="#ap"/><use transform="matrix(0.018,0,0,0.018,68.09400000000001,0)" xlink:href="#aq"/><use transform="matrix(0.018,0,0,0.018,74.28600000000002,0)" xlink:href="#an"/><use transform="matrix(0.018,0,0,0.018,84.456,0)" xlink:href="#aL"/></g><filter id="y" filterUnits="objectBoundingBox" x="-.01" y="-.01" width="1.03" height="1.03"><feOffset result="offOut" in="SourceAlpha" dy="3"/><feGaussianBlur result="blurOut" in="offOut" stdDeviation="2.5"/><feColorMatrix result="colorOut" in="blurOut" values="0 0 0 0 0.018823529411764708 0 0 0 0 0.018823529411764708 0 0 0 0 0.018823529411764708 0 0 0 0.2 0"/><feBlend in="SourceGraphic" in2="colorOut"/></filter><path d="M335-708c157 0 270 77 267 237-3 159-110 238-267 242H211V0H80v-708h255zm134 238c0-136-122-140-259-133v268h113c83 0 146-47 146-135" id="aU"/><g id="F"><use transform="matrix(0.02,0,0,0.02,0,0)" xlink:href="#aU"/><use transform="matrix(0.02,0,0,0.02,12.16,0)" xlink:href="#Z"/><use transform="matrix(0.02,0,0,0.02,19.72,0)" xlink:href="#R"/><use transform="matrix(0.02,0,0,0.02,32.32,0)" xlink:href="#ac"/><use transform="matrix(0.02,0,0,0.02,42.300000000000004,0)" xlink:href="#Y"/><use transform="matrix(0.02,0,0,0.02,53.879999999999995,0)" xlink:href="#ag"/><use transform="matrix(0.02,0,0,0.02,63.099999999999994,0)" xlink:href="#ag"/></g><path d="M858 0H730c0-185 5-375 1-557L513 0h-98c-73-185-142-374-217-557l4 557H80v-708h192c65 176 127 355 195 528l198-528h193V0" id="aV"/><g id="G"><use transform="matrix(0.02,0,0,0.02,0,0)" xlink:href="#aV"/><use transform="matrix(0.02,0,0,0.02,18.76,0)" xlink:href="#W"/><use transform="matrix(0.02,0,0,0.02,30.14,0)" xlink:href="#U"/><use transform="matrix(0.02,0,0,0.02,42.58,0)" xlink:href="#W"/><use transform="matrix(0.02,0,0,0.02,53.96,0)" xlink:href="#V"/><use transform="matrix(0.02,0,0,0.02,65.36,0)" xlink:href="#Y"/><use transform="matrix(0.02,0,0,0.02,76.94,0)" xlink:href="#Z"/></g><path d="M758 0h-93L489-596h-3L313 0h-93L14-708h92c56 197 108 398 166 593l170-593h95c59 197 113 398 174 593l167-593h87" id="aW"/><path d="M613 0h-95c-45-139-86-282-134-418L254 0h-94L17-509h89c36 138 67 281 106 417l129-417h92c44 139 85 281 132 417l105-417h86" id="aX"/><g id="H"><use transform="matrix(0.018,0,0,0.018,0,0)" xlink:href="#aW"/><use transform="matrix(0.018,0,0,0.018,17.639999999999997,0)" xlink:href="#ar"/><use transform="matrix(0.018,0,0,0.018,22.283999999999995,0)" xlink:href="#at"/><use transform="matrix(0.018,0,0,0.018,33.336,0)" xlink:href="#aL"/><use transform="matrix(0.018,0,0,0.018,44.513999999999996,0)" xlink:href="#as"/><use transform="matrix(0.018,0,0,0.018,55.476,0)" xlink:href="#aX"/><use transform="matrix(0.018,0,0,0.018,69.40799999999999,0)" xlink:href="#au"/></g><g id="I"><use transform="matrix(0.018,0,0,0.018,0,0)" xlink:href="#aB"/><use transform="matrix(0.018,0,0,0.018,16.613999999999997,0)" xlink:href="#ap"/><use transform="matrix(0.018,0,0,0.018,26.441999999999997,0)" xlink:href="#av"/><use transform="matrix(0.018,0,0,0.018,35.495999999999995,0)" xlink:href="#al"/><use transform="matrix(0.018,0,0,0.018,50.05799999999999,0)" xlink:href="#aI"/></g><path d="M517 0H415L259-214 109 0H9l198-267L31-509h97l135 193 134-193h92L315-267" id="aY"/><g id="J"><use transform="matrix(0.018,0,0,0.018,0,0)" xlink:href="#aC"/><use transform="matrix(0.018,0,0,0.018,9.107999999999999,0)" xlink:href="#ar"/><use transform="matrix(0.018,0,0,0.018,13.751999999999999,0)" xlink:href="#at"/><use transform="matrix(0.018,0,0,0.018,24.768,0)" xlink:href="#aD"/><use transform="matrix(0.018,0,0,0.018,35.838,0)" xlink:href="#aY"/></g><path d="M367 17C186 17 81-77 81-254v-454h88v447c1 134 61 201 198 201s198-67 198-201v-447h89v454C654-77 548 17 367 17" id="aZ"/><g id="K"><use transform="matrix(0.018,0,0,0.018,0,0)" xlink:href="#aZ"/><use transform="matrix(0.018,0,0,0.018,13.229999999999999,0)" xlink:href="#at"/><use transform="matrix(0.018,0,0,0.018,24.281999999999996,0)" xlink:href="#ar"/><use transform="matrix(0.018,0,0,0.018,28.925999999999995,0)" xlink:href="#aY"/></g><path d="M328-708c153-1 267 84 267 237 0 100-48 168-143 205L621 0H471L331-240H211V0H80v-708h248zm132 237c0-87-59-132-141-132H210v263h111c82 0 139-45 139-131" id="ba"/><path d="M269 14C141 14 72-75 72-200v-320h126v301c0 78 28 134 105 134 81 0 128-71 128-153v-282h125c4 175-9 357 9 520H445c-6-24-5-47-10-61-37 50-92 75-166 75" id="bb"/><g id="L"><use transform="matrix(0.02,0,0,0.02,0,0)" xlink:href="#ae"/><use transform="matrix(0.02,0,0,0.02,12.86,0)" xlink:href="#af"/><use transform="matrix(0.02,0,0,0.02,27.84,0)" xlink:href="#W"/><use transform="matrix(0.02,0,0,0.02,39.22,0)" xlink:href="#Z"/><use transform="matrix(0.02,0,0,0.02,47.06,0)" xlink:href="#U"/><use transform="matrix(0.02,0,0,0.02,59.72,0)" xlink:href="#Y"/><use transform="matrix(0.02,0,0,0.02,71.3,0)" xlink:href="#ag"/><use transform="matrix(0.02,0,0,0.02,80.52,0)" xlink:href="#ag"/><use transform="matrix(0.02,0,0,0.02,89.74,0)" xlink:href="#ah"/><use transform="matrix(0.02,0,0,0.02,93.41999999999999,0)" xlink:href="#Q"/><use transform="matrix(0.02,0,0,0.02,104.71999999999998,0)" xlink:href="#Y"/><use transform="matrix(0.02,0,0,0.02,116.29999999999998,0)" xlink:href="#ag"/><use transform="matrix(0.02,0,0,0.02,125.51999999999998,0)" xlink:href="#ad"/><use transform="matrix(0.02,0,0,0.02,133.21999999999997,0)" xlink:href="#ba"/><use transform="matrix(0.02,0,0,0.02,145.87999999999997,0)" xlink:href="#bb"/><use transform="matrix(0.02,0,0,0.02,158.55999999999997,0)" xlink:href="#U"/><use transform="matrix(0.02,0,0,0.02,171.21999999999997,0)" xlink:href="#U"/><use transform="matrix(0.02,0,0,0.02,183.87999999999997,0)" xlink:href="#Y"/><use transform="matrix(0.02,0,0,0.02,195.45999999999998,0)" xlink:href="#Z"/><use transform="matrix(0.02,0,0,0.02,203.29999999999995,0)" xlink:href="#ag"/><use transform="matrix(0.02,0,0,0.02,212.51999999999998,0)" xlink:href="#ah"/><use transform="matrix(0.02,0,0,0.02,217.79999999999995,0)" xlink:href="#ai"/><use transform="matrix(0.02,0,0,0.02,230.85999999999996,0)" xlink:href="#R"/><use transform="matrix(0.02,0,0,0.02,243.45999999999998,0)" xlink:href="#aN"/><use transform="matrix(0.02,0,0,0.02,262.78,0)" xlink:href="#aN"/><use transform="matrix(0.02,0,0,0.02,282.09999999999997,0)" xlink:href="#R"/><use transform="matrix(0.02,0,0,0.02,294.7,0)" xlink:href="#U"/><path fill="#8080ff" d="M-1 1h309.36v1H-1z"/></g><g id="N"><use transform="matrix(0.02,0,0,0.02,0,0)" xlink:href="#ae"/><use transform="matrix(0.02,0,0,0.02,12.86,0)" xlink:href="#af"/><use transform="matrix(0.02,0,0,0.02,27.84,0)" xlink:href="#W"/><use transform="matrix(0.02,0,0,0.02,39.22,0)" xlink:href="#Z"/><use transform="matrix(0.02,0,0,0.02,47.06,0)" xlink:href="#U"/><use transform="matrix(0.02,0,0,0.02,59.72,0)" xlink:href="#Y"/><use transform="matrix(0.02,0,0,0.02,71.3,0)" xlink:href="#ag"/><use transform="matrix(0.02,0,0,0.02,80.52,0)" xlink:href="#ag"/><use transform="matrix(0.02,0,0,0.02,89.74,0)" xlink:href="#ah"/><use transform="matrix(0.02,0,0,0.02,93.41999999999999,0)" xlink:href="#Q"/><use transform="matrix(0.02,0,0,0.02,104.71999999999998,0)" xlink:href="#Y"/><use transform="matrix(0.02,0,0,0.02,116.29999999999998,0)" xlink:href="#ag"/><use transform="matrix(0.02,0,0,0.02,125.51999999999998,0)" xlink:href="#ad"/><use transform="matrix(0.02,0,0,0.02,133.21999999999997,0)" xlink:href="#ba"/><use transform="matrix(0.02,0,0,0.02,145.87999999999997,0)" xlink:href="#bb"/><use transform="matrix(0.02,0,0,0.02,158.55999999999997,0)" xlink:href="#U"/><use transform="matrix(0.02,0,0,0.02,171.21999999999997,0)" xlink:href="#U"/><use transform="matrix(0.02,0,0,0.02,183.87999999999997,0)" xlink:href="#Y"/><use transform="matrix(0.02,0,0,0.02,195.45999999999998,0)" xlink:href="#Z"/><use transform="matrix(0.02,0,0,0.02,203.29999999999995,0)" xlink:href="#ag"/><use transform="matrix(0.02,0,0,0.02,212.51999999999998,0)" xlink:href="#ah"/><use transform="matrix(0.02,0,0,0.02,218.20000000000002,0)" xlink:href="#ae"/><path fill="#8080ff" d="M-1 1h233.06v1H-1z"/><use transform="matrix(0.02,0,0,0.02,231.06,0)" xlink:href="#aO"/><use transform="matrix(0.02,0,0,0.02,245.82,0)" xlink:href="#U"/><use transform="matrix(0.02,0,0,0.02,258.48,0)" xlink:href="#T"/><use transform="matrix(0.02,0,0,0.02,264.12,0)" xlink:href="#ad"/></g><filter id="M" filterUnits="objectBoundingBox" x="-.01" y="-.02" width="1.02" height="1.09"><feOffset result="offOut" in="SourceAlpha" dy="3"/><feGaussianBlur result="blurOut" in="offOut" stdDeviation="2.5"/><feColorMatrix result="colorOut" in="blurOut" values="0 0 0 0 0.018823529411764708 0 0 0 0 0.018823529411764708 0 0 0 0 0.018823529411764708 0 0 0 0.2 0"/><feBlend in="SourceGraphic" in2="colorOut"/></filter><path d="M80-708h149c118 176 232 354 352 528l-3-528h121V0H550C432-176 318-355 198-529l4 529H80v-708" id="bc"/><g id="P"><use transform="matrix(0.02,0,0,0.02,0,0)" xlink:href="#ae"/><use transform="matrix(0.02,0,0,0.02,12.86,0)" xlink:href="#af"/><use transform="matrix(0.02,0,0,0.02,27.84,0)" xlink:href="#W"/><use transform="matrix(0.02,0,0,0.02,39.22,0)" xlink:href="#Z"/><use transform="matrix(0.02,0,0,0.02,47.06,0)" xlink:href="#U"/><use transform="matrix(0.02,0,0,0.02,59.72,0)" xlink:href="#Y"/><use transform="matrix(0.02,0,0,0.02,71.3,0)" xlink:href="#ag"/><use transform="matrix(0.02,0,0,0.02,80.52,0)" xlink:href="#ag"/><use transform="matrix(0.02,0,0,0.02,89.74,0)" xlink:href="#ah"/><use transform="matrix(0.02,0,0,0.02,93.41999999999999,0)" xlink:href="#Q"/><use transform="matrix(0.02,0,0,0.02,104.71999999999998,0)" xlink:href="#Y"/><use transform="matrix(0.02,0,0,0.02,116.29999999999998,0)" xlink:href="#ag"/><use transform="matrix(0.02,0,0,0.02,125.51999999999998,0)" xlink:href="#ad"/><use transform="matrix(0.02,0,0,0.02,133.21999999999997,0)" xlink:href="#ba"/><use transform="matrix(0.02,0,0,0.02,145.87999999999997,0)" xlink:href="#bb"/><use transform="matrix(0.02,0,0,0.02,158.55999999999997,0)" xlink:href="#U"/><use transform="matrix(0.02,0,0,0.02,171.21999999999997,0)" xlink:href="#U"/><use transform="matrix(0.02,0,0,0.02,183.87999999999997,0)" xlink:href="#Y"/><use transform="matrix(0.02,0,0,0.02,195.45999999999998,0)" xlink:href="#Z"/><use transform="matrix(0.02,0,0,0.02,203.29999999999995,0)" xlink:href="#ag"/><use transform="matrix(0.02,0,0,0.02,212.51999999999998,0)" xlink:href="#ah"/><path fill="#8080ff" d="M-1 1h220.2v1H-1z"/><use transform="matrix(0.02,0,0,0.02,218.20000000000002,0)" xlink:href="#bc"/><use transform="matrix(0.02,0,0,0.02,233.78,0)" xlink:href="#aO"/><use transform="matrix(0.02,0,0,0.02,248.54,0)" xlink:href="#U"/><use transform="matrix(0.02,0,0,0.02,261.2,0)" xlink:href="#T"/><use transform="matrix(0.02,0,0,0.02,266.84,0)" xlink:href="#ad"/></g><filter id="O" filterUnits="objectBoundingBox" x="-.01" y="-.02" width="1.02" height="1.09"><feOffset result="offOut" in="SourceAlpha" dy="3"/><feGaussianBlur result="blurOut" in="offOut" stdDeviation="2.5"/><feColorMatrix result="colorOut" in="blurOut" values="0 0 0 0 0.018823529411764708 0 0 0 0 0.018823529411764708 0 0 0 0 0.018823529411764708 0 0 0 0.2 0"/><feBlend in="SourceGraphic" in2="colorOut"/></filter></defs></g></svg>